<svg width="20" height="20" viewBox="0 0 20 20" fill="none" xmlns="http://www.w3.org/2000/svg">
<path fill-rule="evenodd" clip-rule="evenodd" d="M1.66663 10C1.66663 5.39765 5.39759 1.66669 9.99996 1.66669C12.2101 1.66669 14.3297 2.54466 15.8925 4.10746C17.4553 5.67027 18.3333 7.78988 18.3333 10C18.3333 14.6024 14.6023 18.3334 9.99996 18.3334C5.39759 18.3334 1.66663 14.6024 1.66663 10ZM9.77496 13.0084L13.5833 8.00835V7.98335C13.7649 7.74518 13.8057 7.4282 13.6902 7.15184C13.5747 6.87547 13.3206 6.68169 13.0235 6.6435C12.7264 6.60531 12.4316 6.72851 12.25 6.96669L9.09996 11.1334L7.74163 9.40002C7.55853 9.16482 7.26386 9.04517 6.96862 9.08614C6.67338 9.12711 6.42243 9.32247 6.31029 9.59864C6.19815 9.87481 6.24186 10.1898 6.42496 10.425L8.45829 13.0167C8.61731 13.2179 8.86014 13.3347 9.11663 13.3334C9.37454 13.3327 9.61763 13.2127 9.77496 13.0084Z" fill="#54D62C"/>
</svg>
