<svg width="20" height="20" viewBox="0 0 20 20" fill="none" xmlns="http://www.w3.org/2000/svg">
<path fill-rule="evenodd" clip-rule="evenodd" d="M18.8 13.5833L12.4084 2.98334C11.8831 2.16168 10.9752 1.66449 10 1.66449C9.02485 1.66449 8.11694 2.16168 7.59171 2.98334L1.20004 13.5833C0.740498 14.3494 0.724614 15.3024 1.15838 16.0833C1.66002 16.9626 2.59607 17.5039 3.60838 17.5H16.3917C17.3971 17.5107 18.3316 16.9831 18.8417 16.1167C19.2884 15.3272 19.2725 14.3577 18.8 13.5833ZM10 14.1667C9.53981 14.1667 9.16671 13.7936 9.16671 13.3333C9.16671 12.8731 9.53981 12.5 10 12.5C10.4603 12.5 10.8334 12.8731 10.8334 13.3333C10.8334 13.7936 10.4603 14.1667 10 14.1667ZM10 11.6667C10.4603 11.6667 10.8334 11.2936 10.8334 10.8333V7.50001C10.8334 7.03977 10.4603 6.66668 10 6.66668C9.53981 6.66668 9.16671 7.03977 9.16671 7.50001V10.8333C9.16671 11.2936 9.53981 11.6667 10 11.6667Z" fill="#FFC107"/>
</svg>
