<?xml version="1.0" standalone="no"?>
<!DOCTYPE svg PUBLIC "-//W3C//DTD SVG 20010904//EN"
 "http://www.w3.org/TR/2001/REC-SVG-20010904/DTD/svg10.dtd">
<svg version="1.0" xmlns="http://www.w3.org/2000/svg"
  viewBox="0 0 300.000000 300.000000"
 preserveAspectRatio="xMidYMid meet">
<metadata>
Created by potrace 1.15, written by Peter Selinger 2001-2017
</metadata>
<g transform="translate(0.000000,300.000000) scale(0.100000,-0.100000)" stroke="none">
<path class="svg-image" fill= "" d="M1555 2889 c-16 -6 -43 -16 -60 -24 -16 -8 -41 -19 -55 -25 -70 -30
-157 -104 -221 -186 -124 -161 -152 -422 -67 -616 37 -84 63 -122 128 -188 61
-61 83 -77 157 -117 154 -83 426 -85 563 -2 8 5 31 16 49 24 61 27 182 162
229 255 37 72 44 97 53 183 15 147 0 255 -49 359 -21 46 -49 92 -60 102 -12
11 -22 23 -22 28 0 21 -168 158 -194 158 -6 0 -24 7 -41 16 -65 34 -119 44
-250 43 -71 0 -143 -5 -160 -10z m220 -114 c19 -18 25 -35 25 -68 0 -43 2 -45
33 -51 17 -3 55 -19 83 -36 95 -54 131 -179 84 -289 l-21 -47 20 -45 c62 -135
-18 -295 -159 -318 -34 -6 -35 -8 -40 -60 -9 -81 -54 -110 -120 -76 -30 16
-37 32 -42 95 l-3 35 -87 3 c-135 4 -128 -16 -128 369 l0 315 29 29 c28 27 34
29 110 29 l81 0 0 41 c0 49 14 77 43 89 38 15 67 11 92 -15z"/>
<path class="svg-image" fill="" d="M1590 2430 l0 -60 118 0 c130 0 142 5 142 56 0 56 -17 64 -146 64
l-114 0 0 -60z"/>
<path class="svg-image" fill="" d="M1590 2140 l0 -60 114 0 c129 0 146 8 146 64 0 51 -12 56 -142 56
l-118 0 0 -60z"/>
<path class="svg-image" fill="" d="M440 2154 c-48 -15 -80 -52 -80 -93 0 -11 24 -67 54 -124 l54 -103
-33 -43 c-89 -112 -161 -267 -172 -371 l-6 -58 -50 -7 c-71 -10 -112 -30 -141
-68 -26 -33 -26 -36 -26 -211 0 -134 3 -184 14 -205 8 -15 50 -59 93 -97 43
-38 83 -74 88 -80 60 -64 318 -224 362 -224 10 0 13 -34 13 -168 0 -135 3
-172 16 -190 15 -22 19 -22 248 -22 215 0 234 1 250 19 17 18 40 92 51 161 l5
36 263 -1 c144 0 278 3 298 8 37 7 37 7 42 -30 7 -62 37 -156 54 -175 15 -16
38 -18 248 -18 l233 0 16 25 c13 20 16 57 16 219 l0 195 58 48 c109 91 190
200 242 330 36 88 49 154 58 297 l7 99 44 15 c46 15 171 129 171 155 0 8 8 29
18 48 12 25 18 64 20 142 3 94 1 116 -19 165 -62 158 -212 269 -300 222 -22
-12 -49 -60 -49 -89 0 -26 31 -80 50 -86 26 -8 100 -80 100 -96 0 -8 5 -20 12
-27 7 -7 11 -39 11 -74 -1 -67 -24 -124 -66 -159 -28 -23 -37 -24 -37 -1 0 10
-9 35 -20 57 -11 22 -20 45 -20 52 0 32 -196 283 -220 283 -4 0 -21 -21 -38
-47 -47 -72 -116 -147 -183 -198 -32 -25 -63 -45 -68 -45 -4 0 -20 -9 -35 -21
-35 -27 -191 -77 -284 -90 -74 -10 -167 -6 -227 11 -111 30 -185 57 -215 77
-19 13 -38 23 -43 23 -24 0 -179 143 -217 200 -13 19 -28 40 -34 45 -25 23
-96 190 -96 226 0 8 -16 20 -37 26 -21 6 -65 21 -97 32 -50 18 -81 21 -205 20
-94 -1 -162 -6 -191 -15z m283 -660 c31 -36 38 -71 22 -110 -15 -35 -59 -64
-99 -64 -14 0 -40 13 -58 29 -28 25 -33 36 -33 76 0 39 5 51 28 71 40 35 109
34 140 -2z"/>
</g>
</svg>
