<svg width="20" height="20" viewBox="0 0 20 20" fill="none" xmlns="http://www.w3.org/2000/svg">
<path fill-rule="evenodd" clip-rule="evenodd" d="M9.99996 1.66669C5.39759 1.66669 1.66663 5.39765 1.66663 10C1.66663 14.6024 5.39759 18.3334 9.99996 18.3334C14.6023 18.3334 18.3333 14.6024 18.3333 10C18.3333 7.78988 17.4553 5.67027 15.8925 4.10746C14.3297 2.54466 12.2101 1.66669 9.99996 1.66669ZM9.99996 14.1667C9.53972 14.1667 9.16663 13.7936 9.16663 13.3334C9.16663 12.8731 9.53972 12.5 9.99996 12.5C10.4602 12.5 10.8333 12.8731 10.8333 13.3334C10.8333 13.7936 10.4602 14.1667 9.99996 14.1667ZM9.99996 11.6667C10.4602 11.6667 10.8333 11.2936 10.8333 10.8334V6.66669C10.8333 6.20645 10.4602 5.83335 9.99996 5.83335C9.53972 5.83335 9.16663 6.20645 9.16663 6.66669V10.8334C9.16663 11.2936 9.53972 11.6667 9.99996 11.6667Z" fill="#FF4842"/>
</svg>
