<?xml version="1.0" standalone="no"?>
<!DOCTYPE svg PUBLIC "-//W3C//DTD SVG 20010904//EN"
 "http://www.w3.org/TR/2001/REC-SVG-20010904/DTD/svg10.dtd">
<svg id="mwb_wcb_transaction" version="1.0" xmlns="http://www.w3.org/2000/svg"
  viewBox="0 0 300.000000 300.000000"
 preserveAspectRatio="xMidYMid meet">
<metadata>
Created by potrace 1.15, written by Peter Selinger 2001-2017
</metadata>
<g class="g-image" transform="translate(0.000000,300.000000) scale(0.100000,-0.100000)" stroke="none" fill="">
<path class="svg-image" fill= "" d="M1917 2931 c-171 -47 -325 -154 -418 -289 -157 -229 -195 -451 -122
-702 45 -155 155 -318 273 -402 39 -28 155 -91 185 -101 130 -41 165 -46 290
-47 161 0 252 21 374 86 142 77 209 136 292 262 90 136 119 243 119 433 0 193
-26 282 -129 438 -90 136 -217 237 -385 303 -78 30 -88 32 -246 35 -138 2
-176 0 -233 -16z m278 -236 c18 -17 25 -35 25 -63 0 -35 4 -41 49 -70 99 -65
142 -176 85 -221 -47 -37 -79 -28 -143 39 -50 52 -63 60 -94 60 -45 0 -77 -29
-77 -68 0 -36 25 -58 120 -107 154 -78 189 -113 211 -211 21 -95 -23 -193
-113 -250 -32 -20 -38 -30 -38 -57 0 -36 -28 -69 -67 -81 -45 -14 -103 39
-103 94 0 13 -12 25 -34 34 -19 8 -56 34 -82 58 -73 67 -92 132 -53 182 27 35
90 37 119 4 62 -72 80 -88 105 -94 64 -16 118 37 93 91 -9 19 -40 41 -112 77
-130 65 -160 89 -191 151 -62 124 -11 274 113 328 33 14 42 24 42 43 0 13 12
38 26 55 33 40 83 43 119 6z"/>
<path fill= "" class="svg-image" d="M816 2624 c-20 -20 -20 -67 0 -105 8 -17 14 -32 12 -34 -2 -1 -19
-10 -39 -19 -45 -21 -167 -132 -212 -194 -88 -119 -169 -310 -182 -428 -11
-94 17 -133 96 -134 60 0 85 26 103 111 21 95 45 156 94 233 59 94 107 149
170 198 43 33 55 38 67 28 8 -7 15 -18 15 -24 0 -19 44 -56 66 -56 38 1 51 19
137 182 68 127 74 169 27 193 -16 8 -38 15 -49 15 -11 0 -30 4 -43 9 -42 16
-165 41 -206 41 -24 0 -47 -7 -56 -16z"/>
<path fill= "" class="svg-image" d="M745 1614 c-73 -11 -127 -30 -234 -82 -91 -45 -128 -70 -186 -127
-74 -71 -137 -157 -169 -230 -9 -22 -21 -49 -27 -60 -41 -89 -54 -362 -24
-479 69 -264 281 -481 550 -563 87 -26 332 -26 430 1 181 49 339 167 436 324
103 167 129 254 129 438 0 186 -36 305 -140 458 -67 100 -149 172 -261 228
-146 74 -204 89 -349 93 -69 2 -138 1 -155 -1z m154 -255 c38 -14 61 -54 61
-109 0 -34 3 -40 20 -40 32 0 92 -28 123 -58 73 -68 93 -185 48 -271 l-23 -44
20 -41 c31 -63 36 -107 18 -170 -26 -88 -110 -166 -181 -166 -23 0 -25 -3 -25
-46 0 -37 -5 -51 -29 -75 -58 -58 -135 -26 -147 60 l-6 49 -86 4 c-78 4 -87 7
-109 32 l-23 27 0 324 0 324 24 28 c22 26 31 28 109 31 l85 4 6 47 c6 47 30
81 66 94 8 3 15 6 16 6 1 1 15 -4 33 -10z"/>
<path fill= "" class="svg-image" d="M732 983 l3 -58 109 -3 c128 -3 156 8 156 61 0 53 -11 57 -147 57
l-124 0 3 -57z"/>
<path fill= "" class="svg-image" d="M730 690 l0 -60 125 0 c113 0 125 2 135 19 15 30 12 66 -8 84 -15 14
-41 17 -135 17 l-117 0 0 -60z"/>
<path fill= "" class="svg-image" d="M2477 1232 c-15 -15 -27 -37 -27 -49 0 -11 -4 -33 -9 -49 -5 -16 -15
-49 -22 -74 -37 -124 -171 -303 -280 -373 l-26 -17 -23 45 c-24 48 -51 62 -93
51 -18 -4 -40 -38 -95 -145 -40 -78 -72 -153 -72 -169 0 -39 23 -56 95 -71 33
-7 76 -16 95 -21 19 -4 65 -14 102 -21 66 -12 69 -12 93 11 28 27 32 58 10 99
-14 28 -13 30 17 55 18 14 37 26 44 26 16 0 168 150 185 183 8 14 30 52 49 84
66 108 129 284 130 361 0 89 -112 137 -173 74z"/>
</g>
</svg>
